<svg width="25" height="24" viewBox="0 0 25 24" fill="none" xmlns="http://www.w3.org/2000/svg">
<path fill-rule="evenodd" clip-rule="evenodd" d="M19.1979 18.7071C18.7952 19.0976 18.1422 19.0976 17.7395 18.7071L11.5517 12.7071C11.149 12.3166 11.149 11.6834 11.5517 11.2929L17.7395 5.29289C18.1422 4.90237 18.7952 4.90237 19.1979 5.29289C19.6007 5.68342 19.6007 6.31658 19.1979 6.70711L13.7394 12L19.1979 17.2929C19.6007 17.6834 19.6007 18.3166 19.1979 18.7071Z" fill="#0E2356"/>
<path fill-rule="evenodd" clip-rule="evenodd" d="M5.80206 5.29289C6.2048 4.90237 6.85778 4.90237 7.26053 5.29289L13.4483 11.2929C13.851 11.6834 13.851 12.3166 13.4483 12.7071L7.26053 18.7071C6.85778 19.0976 6.2048 19.0976 5.80206 18.7071C5.39931 18.3166 5.39931 17.6834 5.80206 17.2929L11.2606 12L5.80206 6.70711C5.39931 6.31658 5.39931 5.68342 5.80206 5.29289Z" fill="#0E2356"/>
</svg>
