<svg width="24" height="24" viewBox="0 0 24 24" fill="none" xmlns="http://www.w3.org/2000/svg">
<path fill-rule="evenodd" clip-rule="evenodd" d="M10 4C8.81331 4 7.65328 4.35189 6.66658 5.01118C5.67989 5.67047 4.91085 6.60754 4.45673 7.7039C4.0026 8.80026 3.88378 10.0067 4.11529 11.1705C4.3468 12.3344 4.91825 13.4035 5.75736 14.2426C6.59648 15.0818 7.66558 15.6532 8.82946 15.8847C9.99335 16.1162 11.1997 15.9974 12.2961 15.5433C13.3925 15.0892 14.3295 14.3201 14.9888 13.3334C15.6481 12.3467 16 11.1867 16 10C16 8.4087 15.3679 6.88258 14.2426 5.75736C13.1174 4.63214 11.5913 4 10 4ZM5.55544 3.34824C6.87103 2.46919 8.41775 2 10 2C12.1217 2 14.1566 2.84285 15.6569 4.34315C17.1571 5.84344 18 7.87827 18 10C18 11.5823 17.5308 13.129 16.6518 14.4446C16.5463 14.6024 16.4355 14.7561 16.3196 14.9054L20.7071 19.2929C21.0976 19.6834 21.0976 20.3166 20.7071 20.7071C20.3166 21.0976 19.6834 21.0976 19.2929 20.7071L14.9054 16.3196C14.3443 16.7551 13.7248 17.1163 13.0615 17.391C11.5997 17.9965 9.99113 18.155 8.43928 17.8463C6.88743 17.5376 5.46197 16.7757 4.34315 15.6569C3.22433 14.538 2.4624 13.1126 2.15372 11.5607C1.84504 10.0089 2.00347 8.40034 2.60897 6.93853C3.21447 5.47672 4.23985 4.22729 5.55544 3.34824Z" fill="#566589"/>
<path fill-rule="evenodd" clip-rule="evenodd" d="M15.9393 15.9393C16.5251 15.3536 17.4749 15.3536 18.0607 15.9393L21.5607 19.4393C22.1464 20.0251 22.1464 20.9749 21.5607 21.5607C20.9749 22.1464 20.0251 22.1464 19.4393 21.5607L15.9393 18.0607C15.3536 17.4749 15.3536 16.5251 15.9393 15.9393Z" fill="#566589"/>
<path d="M18.8202 3.04429C19.2802 3.49918 19.2802 4.18151 18.8202 4.63639C18.3602 5.09128 17.6702 5.09128 17.2102 4.63639C16.7502 4.18151 16.7502 3.49918 17.2102 3.04429C17.6702 2.5894 18.4177 2.5894 18.8202 3.04429Z" fill="#566589"/>
<path d="M14.371 6.83563C14.831 7.29052 14.831 7.97285 14.371 8.42774C13.911 8.88262 13.221 8.88262 12.761 8.42774C12.301 7.97285 12.301 7.29052 12.761 6.83563C13.1635 6.4376 13.911 6.4376 14.371 6.83563Z" fill="#566589"/>
</svg>
