<svg width="24" height="24" viewBox="0 0 24 24" fill="none" xmlns="http://www.w3.org/2000/svg">
<path fill-rule="evenodd" clip-rule="evenodd" d="M16.4277 3.42969C16.4277 2.8774 15.98 2.42969 15.4277 2.42969C14.8754 2.42969 14.4277 2.8774 14.4277 3.42969V4.14355H9.57227V3.42969C9.57227 2.8774 9.12455 2.42969 8.57227 2.42969C8.01998 2.42969 7.57227 2.8774 7.57227 3.42969V4.14355H5.99944C4.50038 4.14355 3.28516 5.35878 3.28516 6.85784V18.8578C3.28516 20.3569 4.50038 21.5721 5.99944 21.5721H17.9994C19.4985 21.5721 20.7137 20.3569 20.7137 18.8578V6.85784C20.7137 5.35878 19.4985 4.14355 17.9994 4.14355H16.4277V3.42969ZM7.57227 6.85826V6.14355H5.99944C5.60495 6.14355 5.28516 6.46335 5.28516 6.85784V9.75098H18.7137V6.85784C18.7137 6.46335 18.3939 6.14355 17.9994 6.14355H16.4277V6.85826C16.4277 7.41054 15.98 7.85826 15.4277 7.85826C14.8754 7.85826 14.4277 7.41054 14.4277 6.85826V6.14355H9.57227V6.85826C9.57227 7.41054 9.12455 7.85826 8.57227 7.85826C8.01998 7.85826 7.57227 7.41054 7.57227 6.85826ZM18.7137 11.751H5.28516V18.8578C5.28516 19.2523 5.60495 19.5721 5.99944 19.5721H17.9994C18.3939 19.5721 18.7137 19.2523 18.7137 18.8578V11.751Z" fill="#0E2356"/>
</svg>
