<svg width="24" height="24" viewBox="0 0 24 24" fill="none" xmlns="http://www.w3.org/2000/svg">
<path fill-rule="evenodd" clip-rule="evenodd" d="M17.7708 6.96289H6.24022L12.0045 10.7974C12.0131 10.8031 12.0217 10.809 12.0301 10.815L17.7708 6.96289ZM2 7.8719C2.00038 7.24432 2.12828 6.59184 2.40679 6.05937C2.66715 5.5616 3.18791 4.96289 4 4.96289H20C20.8121 4.96289 21.3329 5.5616 21.5932 6.05937C21.8624 6.57396 21.9909 7.20064 21.9995 7.80861C22.0002 7.82733 22.0005 7.84607 22.0006 7.86483L22.0006 7.86998L22.0006 17.04C22.0006 17.5704 21.7899 18.0791 21.4148 18.4542C21.0398 18.8293 20.5311 19.04 20.0006 19.04H4.00062C3.47019 19.04 2.96148 18.8293 2.58641 18.4542C2.21133 18.0791 2.00062 17.5704 2.00062 17.04V7.92459M20 7.87561C20 7.88723 20.0002 7.89881 20.0006 7.91034V17.04H4.00062V7.90998C4.00062 7.89824 4.00041 7.8865 4 7.87476C4 7.87475 4 7.87475 4 7.87474L5.26153 8.71394C5.31527 8.77278 5.37696 8.8261 5.44627 8.87227L10.8963 12.5023L10.8963 12.5023L10.9006 12.5051C11.2272 12.7202 11.6096 12.8348 12.0006 12.8348C12.3916 12.8348 12.7741 12.7202 13.1006 12.5051L13.1006 12.5052L13.105 12.5023L13.1078 12.5004L18.555 8.87227C18.6164 8.83135 18.6719 8.78481 18.7211 8.73378L20 7.87561Z" fill="#0E2356"/>
</svg>
