<svg width="24" height="24" viewBox="0 0 24 24" fill="none" xmlns="http://www.w3.org/2000/svg">
<path d="M21.0003 15V18.93C21.0033 19.219 20.9438 19.5051 20.8256 19.7688C20.7075 20.0325 20.5336 20.2675 20.316 20.4576C20.0984 20.6476 19.8421 20.7883 19.5649 20.8699C19.2878 20.9514 18.9962 20.9719 18.7103 20.93C14.7472 20.4209 11.0662 18.6077 8.24725 15.7761C5.42828 12.9444 3.63159 9.25532 3.14028 5.29003C3.0985 5.00498 3.1188 4.71427 3.19979 4.43779C3.28077 4.16131 3.42053 3.90559 3.6095 3.68813C3.79848 3.47067 4.0322 3.29661 4.29468 3.17784C4.55715 3.05908 4.84219 2.99843 5.13028 3.00003H9.00028C9.2475 2.99853 9.4865 3.08866 9.67118 3.25302C9.85585 3.41737 9.97309 3.64431 10.0003 3.89003C10.0995 5.20061 10.4385 6.48183 11.0003 7.67003C11.0966 7.89506 11.1071 8.14761 11.0297 8.37983C10.9523 8.61205 10.7924 8.80781 10.5803 8.93003L9.72028 9.42003C9.59632 9.48821 9.48824 9.58191 9.40317 9.69495C9.3181 9.80799 9.25799 9.93779 9.2268 10.0758C9.19561 10.2138 9.19405 10.3568 9.22224 10.4955C9.25042 10.6341 9.30769 10.7652 9.39028 10.88C10.3796 12.3292 11.6311 13.5807 13.0803 14.57C13.1951 14.6526 13.3262 14.7099 13.4649 14.7381C13.6035 14.7663 13.7465 14.7647 13.8845 14.7335C14.0225 14.7023 14.1523 14.6422 14.2654 14.5571C14.3784 14.4721 14.4721 14.364 14.5403 14.24L15.0303 13.38C15.1598 13.1652 15.3654 13.0068 15.6062 12.9364C15.847 12.8661 16.1054 12.8888 16.3303 13C17.5185 13.5618 18.7997 13.9008 20.1103 14C20.356 14.0272 20.5829 14.1445 20.7473 14.3291C20.9117 14.5138 21.0018 14.7528 21.0003 15Z" stroke="#0E2356" stroke-width="2" stroke-linecap="round" stroke-linejoin="round"/>
</svg>
