<svg width="17" height="18" viewBox="0 0 17 18" fill="none" xmlns="http://www.w3.org/2000/svg">
<path fill-rule="evenodd" clip-rule="evenodd" d="M8.08333 2.58333H2.58333V15.4167H8.08333C8.58959 15.4167 9 15.8271 9 16.3333C9 16.8396 8.5896 17.25 8.08333 17.25H2.58333C1.575 17.25 0.75 16.425 0.75 15.4167V2.58333C0.75 1.575 1.575 0.75 2.58333 0.75H8.08333C8.58959 0.75 9 1.16041 9 1.66667C9 2.17293 8.5896 2.58333 8.08333 2.58333ZM13.5828 6.54044C13.5828 6.09499 14.1214 5.8719 14.4364 6.18689L16.5424 8.29289C16.9329 8.68342 16.9329 9.31658 16.5424 9.70711L14.4364 11.8131C14.1214 12.1281 13.5828 11.905 13.5828 11.4596V9.91667H6.34131C5.83505 9.91667 5.42464 9.50626 5.42464 9C5.42464 8.49374 5.83505 8.08333 6.34131 8.08333H13.5828V6.54044Z" fill="#0E2356"/>
</svg>
